<?xml version="1.0" standalone="no"?>
<!DOCTYPE svg PUBLIC "-//W3C//DTD SVG 20010904//EN"
 "http://www.w3.org/TR/2001/REC-SVG-20010904/DTD/svg10.dtd">
<svg version="1.0" xmlns="http://www.w3.org/2000/svg"
 width="1132.000000pt" height="1132.000000pt" viewBox="0 0 1132.000000 1132.000000"
 preserveAspectRatio="xMidYMid meet">
<metadata>
Created by potrace 1.16, written by Peter Selinger 2001-2019
</metadata>
<g transform="translate(0.000000,1132.000000) scale(0.100000,-0.100000)"
fill="#000000" stroke="none">
<path d="M1635 11314 c-248 -29 -436 -84 -645 -189 -455 -228 -799 -649 -930
-1139 -56 -210 -60 -261 -60 -838 l0 -528 1350 0 1350 0 0 1350 0 1350 -517
-1 c-285 -1 -531 -4 -548 -5z"/>
<path d="M4310 7815 l0 -3505 3505 0 3505 0 0 2658 c0 1752 -3 2686 -10 2742
-26 217 -80 401 -175 595 -271 558 -798 929 -1425 1005 -56 7 -990 10 -2742
10 l-2658 0 0 -3505z"/>
<path d="M0 5660 l0 -1350 1350 0 1350 0 0 1350 0 1350 -1350 0 -1350 0 0
-1350z"/>
<path d="M3 2128 c3 -540 5 -579 25 -673 53 -244 165 -506 299 -695 87 -123
310 -346 433 -433 189 -134 451 -246 695 -299 94 -20 133 -22 673 -25 l572 -4
0 1350 0 1351 -1351 0 -1350 0 4 -572z"/>
<path d="M4310 1350 l0 -1350 1350 0 1350 0 0 1350 0 1350 -1350 0 -1350 0 0
-1350z"/>
<path d="M8620 1350 l0 -1350 528 0 c577 0 628 4 838 60 490 131 911 475 1139
930 84 168 130 303 172 510 12 60 16 185 20 638 l4 562 -1350 0 -1351 0 0
-1350z"/>
</g>
</svg>
